<?xml version="1.0" standalone="no"?>
<!DOCTYPE svg PUBLIC "-//W3C//DTD SVG 20010904//EN"
 "http://www.w3.org/TR/2001/REC-SVG-20010904/DTD/svg10.dtd">
<svg version="1.0" xmlns="http://www.w3.org/2000/svg"
 width="700.000000pt" height="700.000000pt" viewBox="0 0 700.000000 700.000000"
 preserveAspectRatio="xMidYMid meet">
<metadata>
Created by potrace 1.11, written by Peter Selinger 2001-2013
</metadata>
<g transform="translate(0.000000,700.000000) scale(0.100000,-0.100000)"
fill="#000000" stroke="none">
<path d="M3423 6405 c-23 -7 -56 -22 -75 -33 -18 -12 -639 -628 -1379 -1369
-1270 -1271 -1348 -1351 -1363 -1400 -22 -68 -22 -141 0 -206 17 -49 104 -138
1378 -1413 1275 -1274 1364 -1361 1413 -1378 52 -18 133 -23 176 -11 76 21
145 87 1454 1398 1492 1493 1388 1380 1386 1512 -1 130 87 35 -1393 1515
-1456 1455 -1381 1385 -1501 1394 -30 2 -73 -2 -96 -9z m1667 -2624 c-11 -20
-999 -1007 -1001 -1000 -1 2 -3 164 -3 359 l-2 355 -585 3 -584 2 0 -437 1
-438 -281 1 c-154 1 -285 2 -291 3 -7 1 -10 182 -9 614 l1 612 22 50 c26 57
61 97 112 130 78 49 67 49 855 49 407 1 745 4 750 8 6 4 10 135 9 363 l0 356
507 -507 c401 -401 506 -511 499 -523z"/>
</g>
</svg>
